<svg width="16.000000" height="16.000000" viewBox="0 0 16 16" fill="none" xmlns="http://www.w3.org/2000/svg" xmlns:xlink="http://www.w3.org/1999/xlink">
	<desc>
			Created with Pixso.
	</desc>
	<defs/>
	<path id="dribbble" d="M8 0C3.58 0 0 3.58 0 8C0 12.41 3.58 16 8 16C12.4 16 16 12.41 16 8C16 3.58 12.4 0 8 0ZM13.28 3.68C14.24 4.84 14.8 6.32 14.83 7.93C14.6 7.88 12.35 7.44 10.08 7.71C10.03 7.6 9.98 7.47 9.93 7.36C9.79 7.02 9.64 6.68 9.48 6.36C11.98 5.36 13.13 3.87 13.28 3.68ZM8 1.18C9.72 1.18 11.32 1.84 12.52 2.89C12.4 3.07 11.37 4.44 8.94 5.36C7.82 3.29 6.57 1.61 6.4 1.36C6.91 1.24 7.44 1.18 8 1.18ZM5.08 1.82C5.26 2.06 6.47 3.76 7.61 5.77C4.41 6.62 1.59 6.6 1.29 6.6C1.76 4.48 3.18 2.72 5.08 1.82ZM1.16 8.01C1.16 7.95 1.16 7.87 1.16 7.8C1.45 7.82 4.78 7.85 8.19 6.83C8.38 7.21 8.57 7.6 8.75 8C8.67 8.03 8.57 8.04 8.47 8.08C4.96 9.21 3.08 12.32 2.92 12.57C1.82 11.36 1.16 9.76 1.16 8.01ZM8 14.83C6.41 14.83 4.96 14.28 3.8 13.39C3.93 13.13 5.31 10.46 9.16 9.12C9.18 9.1 9.2 9.1 9.21 9.1C10.17 11.6 10.57 13.68 10.67 14.28C9.85 14.64 8.94 14.83 8 14.83ZM11.8 13.66C11.74 13.24 11.37 11.24 10.48 8.8C12.62 8.46 14.49 9.02 14.73 9.08C14.43 10.99 13.34 12.64 11.8 13.66Z" fill="#FFFFFF" fill-opacity="1.000000" fill-rule="nonzero"/>
</svg>
