<svg width="16.000000" height="16.000000" viewBox="0 0 16 16" fill="none" xmlns="http://www.w3.org/2000/svg" xmlns:xlink="http://www.w3.org/1999/xlink">
	<desc>
			Created with Pixso.
	</desc>
	<defs/>
	<path id="linkedin" d="M3.59 16L0.2 16L0.2 5.3L3.59 5.3L3.59 16ZM1.9 3.8C0.79 3.8 0 3 0 1.9C0 0.79 0.9 0 1.9 0C3 0 3.79 0.79 3.79 1.9C3.79 3 3 3.8 1.9 3.8ZM16 16L12.6 16L12.6 10.2C12.6 8.5 11.9 8 10.9 8C9.9 8 8.9 8.8 8.9 10.3L8.9 16L5.5 16L5.5 5.3L8.7 5.3L8.7 6.8C9 6.1 10.2 5 11.9 5C13.8 5 15.8 6.1 15.8 9.39L15.8 16L16 16Z" fill="#FFFFFF" fill-opacity="1.000000" fill-rule="nonzero"/>
</svg>
