<svg width="16.000000" height="13.000000" viewBox="0 0 16 13" fill="none" xmlns="http://www.w3.org/2000/svg" xmlns:xlink="http://www.w3.org/1999/xlink">
	<desc>
			Created with Pixso.
	</desc>
	<defs/>
	<path id="twitter" d="M16 1C15.4 1.3 14.8 1.4 14.1 1.5C14.8 1.1 15.3 0.5 15.5 -0.3C14.9 0.1 14.2 0.29 13.4 0.5C12.8 -0.1 11.9 -0.5 11 -0.5C8.89 -0.5 7.29 1.5 7.79 3.5C5.1 3.4 2.7 2.09 1 0.1C0.1 1.6 0.6 3.5 2 4.5C1.5 4.5 1 4.3 0.5 4.1C0.5 5.6 1.6 7 3.1 7.4C2.6 7.5 2.1 7.6 1.6 7.5C2 8.8 3.2 9.8 4.7 9.8C3.5 10.7 1.7 11.2 0 11C1.5 11.9 3.2 12.5 5 12.5C11.1 12.5 14.5 7.4 14.3 2.7C15 2.3 15.6 1.7 16 1Z" fill="#FFFFFF" fill-opacity="1.000000" fill-rule="nonzero"/>
</svg>
